<?xml version="1.0" encoding="iso-8859-1"?>
<!-- Generator: Adobe Illustrator 23.0.3, SVG Export Plug-In . SVG Version: 6.00 Build 0)  -->
<svg version="1.1" xmlns="http://www.w3.org/2000/svg" xmlns:xlink="http://www.w3.org/1999/xlink" x="0px" y="0px"
	 viewBox="0 0 580 580" style="enable-background:new 0 0 580 580;" xml:space="preserve">
<g id="apple">
	<g>
		<path d="M459.174,188.047c-21.733-24.631-47.737-33.477-64.895-33.477c-18.226,0-37.442,5.186-56.049,10.218
			c-13.468,3.646-26.279,7.068-37.732,8.366c0.752-7.767,3.955-15.481,6.443-20.475c2.135,2.054,4.527,3.792,7.156,5.098
			c4.419,2.196,8.93,2.983,13.164,2.983c8.154-0.001,15.272-2.92,18.676-4.317c8.379-3.437,12.724-7.793,16.927-12.005
			c2.735-2.741,5.319-5.33,9.209-7.823c8.588-5.501,19.733-7.865,33.126-7.031l16.182,1.01c0.892,0.056,1.339-1.058,0.656-1.634
			l-12.387-10.461c-11.647-9.836-52.451-40.873-88.552-27.279c-4.081,1.537-16.5,6.213-22.354,18.54
			c-1.55,3.265-2.51,6.778-2.945,10.376c-3.854-15.199-9.233-29.102-10.871-33.357c-2.453-6.371-6.649-25.639-24.182-17.038
			s-12.018,18.599-7.988,21.621c2.567,1.926,3.915,4.019,4.26,4.295c3.207,2.559,7.62,11.001,13.538,34.324
			c2.869,9.508,5.491,20.171,7.456,31.893c0.601,3.584,1.099,7.073,1.527,10.484c-8.679-1.799-17.281-5.19-26.258-8.712
			c-14.87-5.872-30.198-11.896-48.195-11.896c-16.014,0-46.975,3.279-73.817,25.089c-30.122,24.479-45.373,64.132-45.373,118.046
			c0,82.739,31.037,135.738,57.117,165.631c31.723,36.375,68.25,52.923,88.84,52.923c15.709,0,21.886-2.669,27.834-5.338
			s11.896-5.185,32.409-5.185c20.513,0,24.555,2.364,28.52,4.652c5.109,2.898,10.371,5.872,29.74,5.872
			c29.359,0,65.963-25.851,95.627-67.488c31.418-44.077,49.415-97.076,49.415-145.347
			C495.32,241.504,475.645,206.807,459.174,188.047z M310.11,115.156c3.674-7.738,12.209-10.952,15.423-12.162
			c4.759-1.792,9.704-2.561,14.695-2.561c17.359,0,35.229,9.32,47.399,17.348c-8.387,1.336-15.862,4.089-22.342,8.24
			c-5.044,3.232-8.383,6.578-11.329,9.531c-3.776,3.785-6.76,6.775-12.795,9.251c-4.081,1.675-13.637,5.597-21.465,1.707
			C309.888,141.636,305.05,125.812,310.11,115.156z M433.856,437.256c-26.919,37.747-58.947,61.235-83.502,61.235
			c-15.404,0-18.759-1.906-22.343-3.965c-5.643-3.203-11.515-6.558-35.917-6.558c-23.64,0-31.418,3.432-38.357,6.482
			c-5.186,2.288-9.227,4.042-21.81,4.042c-17.844,0-50.254-16.395-77.63-47.813c-24.402-27.986-53.456-77.706-53.456-155.794
			c0-118.962,79.841-128.189,104.32-128.189c15.175,0,29.207,5.491,42.78,10.829c13.879,5.491,28.215,11.134,44.077,11.134h0.076
			c15.328,0,32.181-4.575,50.025-9.38c17.692-4.804,35.993-9.761,52.16-9.761c13.879,0,35.307,7.473,53.761,28.368
			c14.794,16.777,32.409,48.271,32.409,102.642C480.45,345.824,463.444,395.62,433.856,437.256z"/>
	</g>
</g>
<g id="Layer_1">
</g>
</svg>
