<?xml version="1.0" encoding="iso-8859-1"?>
<!-- Generator: Adobe Illustrator 23.0.3, SVG Export Plug-In . SVG Version: 6.00 Build 0)  -->
<svg version="1.1" xmlns="http://www.w3.org/2000/svg" xmlns:xlink="http://www.w3.org/1999/xlink" x="0px" y="0px"
	 viewBox="0 0 580 580" style="enable-background:new 0 0 580 580;" xml:space="preserve">
<g id="brain">
	<path d="M481.368,301.845c-0.001-0.728-0.088-1.452-0.259-2.16c-1.139-3.918-3.113-7.543-5.788-10.625
		c1.536-4.187,2.41-8.588,2.591-13.044c0.864-13.908-0.864-28.679-0.864-29.284c-0.074-0.498-0.19-0.99-0.346-1.469
		c-0.518-1.382-4.751-12.957-13.476-19.782c1.209-4.837,2.505-12.007,1.209-18.572c-1.814-9.502-13.735-38.613-15.031-41.895
		c0-0.086-0.086-0.173-0.086-0.259c-0.518-1.209-13.13-27.988-34.207-35.158c-2.678-6.392-10.539-20.645-28.679-25.742
		c-4.492-7.774-17.363-26.692-38.008-26.692c-0.95,0-1.9,0-2.764,0.086c-4.578-4.751-12.698-9.761-26.951-10.193h-1.209
		c-12.785,0-24.273,6.306-33.43,18.313c-5.942-7.675-14.32-13.098-23.755-15.376c-3.757-0.937-7.617-1.402-11.489-1.382
		c-8.465,0-16.672,2.246-21.336,5.874c-6.152,4.555-10.325,11.294-11.662,18.831c-0.95-0.086-1.9-0.173-2.851-0.173
		c-10.452,0-22.632,5.097-38.613,16.067c-15.745,10.777-26.559,27.372-30.061,46.128c-5.269,1.9-13.13,5.788-18.227,13.303
		c-7.688,11.316-28.506,72.302-30.32,86.296c-1.382,10.193,3.283,23.669,6.22,31.011c-4.578,3.714-11.316,11.057-11.316,21.682
		v27.815c-0.014,0.376,0.015,0.753,0.086,1.123c0.086,0.605,2.505,14.167,14.426,20.905c-3.455,7.342-6.651,19.09-0.95,32.134
		c4.32,9.991,11.582,18.427,20.818,24.187c-0.432,5.615,0.691,14.426,9.329,23.582c0.346,0.432,38.008,39.909,54.075,45.869
		c7.347,2.786,15.121,4.276,22.978,4.405c2.954,0.006,5.903-0.254,8.811-0.777c1.9,8.379,6.911,20.991,19.263,24.446
		c5.044,1.341,10.243,2.009,15.462,1.987c12.18,0,23.15-3.369,30.666-9.243c7.17,4.06,17.536,8.293,29.716,8.293
		c2.954-0.002,5.902-0.262,8.811-0.777c18.399-3.11,30.407-10.798,36.626-23.41c6.951-0.502,13.821-1.806,20.473-3.887
		c16.585-5.356,27.901-15.376,32.739-29.024c5.943-2.586,11.496-5.988,16.499-10.107c12.007-9.934,18.745-22.805,19.609-37.49
		c6.997-4.233,21.682-16.413,18.659-42.068c-0.074-0.527-0.189-1.047-0.346-1.555c3.633-3.412,6.339-7.693,7.861-12.439
		C479.554,340.199,481.196,305.733,481.368,301.845z M452.517,335.88c-1.186-2.133-3.434-3.455-5.874-3.455
		c-1.152-0.011-2.285,0.288-3.283,0.864c-3.217,1.792-4.376,5.849-2.591,9.07l14.426,26.001
		c1.555,16.931-7.256,24.619-11.921,27.556h-26.26l-14.685-21.336v-16.067c0-3.721-3.017-6.738-6.738-6.738
		s-6.738,3.017-6.738,6.738v18.14c0.003,1.361,0.425,2.688,1.209,3.801l10.625,15.376h-44.141l-19.782-9.675
		c-0.917-0.442-1.919-0.678-2.937-0.691c-3.688-0.028-6.7,2.939-6.727,6.627c-0.019,2.587,1.457,4.953,3.79,6.071l18.227,8.897
		l6.22,28.765c0.715,3.058,3.425,5.233,6.565,5.269c0.465-0.015,0.928-0.073,1.382-0.173c1.759-0.346,3.293-1.411,4.233-2.937
		c0.954-1.484,1.295-3.28,0.95-5.01l-5.183-23.842h72.82c-3.196,25.224-28.938,34.035-30.061,34.467
		c-2.145,0.688-3.801,2.408-4.406,4.578c-5.96,21.941-32.998,25.828-42.586,26.433l-10.193-19.177
		c-1.16-2.169-3.415-3.528-5.874-3.542c-1.086-0.009-2.156,0.258-3.11,0.777c-1.572,0.844-2.751,2.27-3.283,3.974
		c-0.528,1.699-0.34,3.539,0.518,5.097l11.057,20.818c-4.319,8.206-13.044,13.303-26.606,15.635
		c-2.113,0.348-4.251,0.521-6.392,0.518c-7.854-0.137-15.547-2.246-22.373-6.133c2.851-8.379,6.911-24.533,4.578-41.723
		l18.054-11.23c3.1-1.991,4.056-6.085,2.16-9.243c-1.222-1.966-3.387-3.146-5.701-3.11c-1.256-0.003-2.486,0.357-3.542,1.037
		l-14.339,9.07c-3.849-10.521-10.158-19.969-18.399-27.556c8.364-6.267,14.117-15.404,16.153-25.656
		c1.469-7.429,2.16-17.017,2.073-28.42h38.527c2.851,0,10.02-0.518,15.635-5.701c4.492-4.146,6.738-9.934,6.738-17.276l0.432-16.413
		v-0.777c-0.117-2.611,0.115-5.225,0.691-7.774c0.338-1.202,0.741-2.384,1.209-3.542h37.749l17.536,9.588
		c0.978,0.547,2.076,0.844,3.196,0.864c2.446,0.023,4.705-1.306,5.874-3.455c0.859-1.558,1.046-3.398,0.518-5.097
		c-0.498-1.695-1.647-3.124-3.196-3.974l-15.549-8.465v-14.599c0-3.721-3.017-6.738-6.738-6.738c-3.721,0-6.738,3.017-6.738,6.738
		v11.834H335.21c-3.721,0-6.738,3.017-6.738,6.738c0,3.721,3.017,6.738,6.738,6.738h7.861c-1.006,3.918-1.414,7.967-1.209,12.007
		l-0.432,16.24c0,3.455-0.864,6.047-2.419,7.515c-2.246,2.073-5.874,2.16-6.565,2.16h-39.045c-0.259-5.01-0.518-8.379-0.605-8.552
		c-0.091-1.038-0.416-2.042-0.95-2.937c-0.173-0.346-18.054-30.061-3.887-61.504h31.702c3.721,0,6.738-3.017,6.738-6.738
		c0-3.721-3.017-6.738-6.738-6.738h-27.21c1.209-9.243,2.246-27.729-3.974-46.646c1.209-6.997,3.974-26.347-0.777-40.859
		c-1.092-6.565,0.36-13.299,4.06-18.831l21.855,15.635c1.145,0.784,2.499,1.206,3.887,1.209h32.825
		c1.787,0.008,3.502-0.708,4.751-1.987l11.057-11.057c2.59-2.638,2.59-6.864,0-9.502c-2.591-2.624-6.819-2.65-9.443-0.059
		c-0.02,0.02-0.039,0.039-0.059,0.059l-9.07,9.329h-27.901l-22.2-15.894c0.95-7.688,0.864-21.164-6.306-38.613
		c5.183-8.638,13.735-18.14,26.174-18.14h0.777c20.559,0.605,21.164,12.612,21.164,14.08v14.685c0,3.721,3.017,6.738,6.738,6.738
		s6.738-3.017,6.738-6.738V94.787c0.028-1.186-0.059-2.372-0.259-3.542c14.253,3.196,23.237,21.25,23.323,21.423
		c0.881,1.889,2.617,3.24,4.665,3.628c18.14,3.801,22.805,20.041,22.978,20.645c0.691,2.42,2.643,4.273,5.097,4.837
		c5.01,1.037,10.107,4.233,15.203,9.329l-13.994,29.888l-31.875,24.533L347.13,220.56l-7.861-6.997
		c-1.204-1.091-2.781-1.678-4.406-1.641c-1.909,0.025-3.722,0.838-5.01,2.246c-1.208,1.307-1.804,3.065-1.641,4.837
		c0.055,1.778,0.874,3.446,2.246,4.578l11.23,9.934c1.204,1.091,2.781,1.678,4.406,1.641c1.018-0.013,2.02-0.249,2.937-0.691
		l20.991-10.279v21.509c0,3.721,3.017,6.738,6.738,6.738c3.721,0,6.738-3.017,6.738-6.738v-28.074l0.95-0.518
		c0.404-0.179,0.781-0.411,1.123-0.691l33.689-25.915c0.868-0.649,1.552-1.512,1.987-2.505l11.748-25.137
		c1.533,2.359,2.918,4.811,4.146,7.342c4.751,11.575,13.044,32.739,14.253,39.131c1.037,5.615-1.037,12.785-1.9,15.549
		L427.207,238.7c-3.153,1.967-4.116,6.117-2.149,9.271c1.225,1.965,3.375,3.162,5.691,3.168c1.256,0.003,2.486-0.357,3.542-1.037
		l21.596-13.476c4.319,3.887,7.256,10.452,8.034,12.353c0.921,8.663,1.181,17.385,0.777,26.087
		c-0.432,6.824-1.814,9.416-2.246,10.02c-1.947,1.302-3.064,3.535-2.937,5.874c0.172,2.854,2.102,5.301,4.837,6.133
		c1.123,0.346,2.764,2.678,3.714,5.269c-0.691,13.562-2.419,37.576-4.837,45.005c-0.451,1.42-1.121,2.761-1.987,3.974
		L452.517,335.88z M248.914,464.244c1.218-1.276,1.871-2.988,1.814-4.751c-0.047-1.768-0.792-3.445-2.073-4.665
		c-1.223-1.192-2.871-1.845-4.578-1.814c-1.827,0.006-3.573,0.754-4.837,2.073l-15.894,16.931c-0.173,0.086-0.346,0.086-0.518,0.173
		c-3.648,1.47-7.558,2.175-11.489,2.073c-6.294-0.086-12.523-1.285-18.399-3.542c-8.897-3.283-34.121-26.779-48.979-42.5
		c-4.146-4.406-5.442-8.293-5.701-11.143l26.433,0.518h0.605c1.209-0.086,12.353-1.469,22.891-12.957
		c2.505-2.72,2.33-6.955-0.389-9.46c-1.236-1.138-2.854-1.77-4.534-1.77c-1.875-0.021-3.669,0.766-4.924,2.16
		c-6.22,6.824-12.525,8.379-14.08,8.638l-30.234-0.605c-7.936-4.175-14.168-10.987-17.622-19.263
		c-5.96-13.648,3.369-25.569,3.714-26.001c1.484-1.817,1.88-4.29,1.037-6.479c-0.828-2.197-2.715-3.824-5.01-4.319
		c-9.07-1.814-11.662-10.279-12.266-12.698v-26.865c0-7.083,6.911-11.834,8.811-13.044l17.968-4.578v9.934
		c0.002,3.721,3.02,6.736,6.741,6.734c3.719-0.002,6.732-3.016,6.734-6.734v-18.572c-0.002-2.063-0.959-4.008-2.591-5.269
		c-1.181-0.926-2.646-1.415-4.146-1.382c-0.551,0.015-1.1,0.073-1.641,0.173l-21.682,5.442c-2.332-5.874-6.133-16.758-5.183-23.755
		c1.468-11.402,21.941-71.352,28.161-80.508c3.369-5.01,9.329-7.515,12.871-8.638c4.665,6.824,12.785,24.101,8.034,38.354
		c-3.369,10.193-3.11,18.054,0.777,23.496c0.51,0.768,1.12,1.465,1.814,2.073l-10.366,12.007c-2.399,2.794-2.09,7.001,0.691,9.416
		c2.815,2.432,7.069,2.123,9.502-0.691l14.426-16.672h44.573l11.23,7.515c1.094,0.746,2.391,1.138,3.714,1.123
		c2.258-0.01,4.363-1.143,5.615-3.023c0.98-1.474,1.351-3.269,1.037-5.01c-0.345-1.736-1.372-3.26-2.851-4.233l-12.957-8.638
		c-1.094-0.746-2.391-1.138-3.714-1.123h-50.793c-0.37-0.049-0.709-0.234-0.95-0.518c-0.691-0.95-1.209-4.406,1.037-11.402
		c4.665-13.908,0.432-28.679-2.505-36.281c-2.16-5.701-6.133-13.303-10.366-17.881c3.339-14.512,11.961-27.261,24.187-35.762
		c13.13-9.07,23.582-13.648,31.098-13.648c3.409-0.025,6.727,1.101,9.416,3.196l11.489,17.276c1.237,1.895,3.351,3.034,5.615,3.023
		c1.318-0.027,2.603-0.415,3.714-1.123c3.066-2.035,3.915-6.163,1.9-9.243l-12.094-18.14c-0.36-0.549-0.796-1.043-1.296-1.468
		c-0.921-0.795-1.903-1.517-2.937-2.16c0.229-5.117,2.772-9.853,6.911-12.871c1.641-1.209,6.392-3.11,13.044-3.11
		c2.854-0.001,5.697,0.347,8.465,1.037c6.392,1.555,15.031,5.788,20.213,16.845c8.034,17.449,8.034,31.702,6.651,38.008
		c-5.803,6.451-9.271,14.665-9.848,23.323h-46.733l-16.672-15.894c-1.223-1.192-2.871-1.845-4.578-1.814
		c-1.827,0.006-3.573,0.754-4.837,2.073c-1.218,1.276-1.871,2.988-1.814,4.751c0.007,1.777,0.759,3.469,2.073,4.665l13.735,13.044
		l-14.339,15.031c-2.543,2.685-2.466,6.912,0.173,9.502c1.256,1.194,2.932,1.845,4.665,1.814c1.823-0.026,3.562-0.771,4.837-2.073
		l17.017-17.795h47.683c3.455,13.648-0.518,33.516-0.605,33.689c-0.259,1.209-0.169,2.468,0.259,3.628
		c7.256,20.559,4.06,41.982,3.283,46.301c-4.249,7.714-7.141,16.099-8.552,24.792h-35.33l-43.191-12.266
		c-0.59-0.171-1.2-0.258-1.814-0.259c-3.711,0.024-6.714,3.026-6.738,6.738v22.978c0,3.721,3.017,6.738,6.738,6.738
		s6.738-3.017,6.738-6.738l0,0V286.21l35.503,10.107c0.59,0.171,1.2,0.258,1.814,0.259h35.33
		c0.365,13.952,4.004,27.622,10.625,39.909c0.518,6.392,1.987,29.802-1.037,45.178c-2.851,14.944-17.19,21.25-17.276,21.336
		l-0.518,0.259h-27.297c-1.9,0-3.887-0.605-4.233-1.123c-0.173-0.259-0.432-1.382,0.432-3.887c1.987-6.22,4.146-12.525,5.874-17.536
		c3.542-10.366,4.146-12.353,4.319-13.821l0.086-0.259c0.864-3.11,3.023-11.489-1.987-17.967c-3.196-4.146-8.293-6.22-15.117-6.22
		h-52.866v-10.971c0-3.721-3.017-6.738-6.738-6.738s-6.738,3.017-6.738,6.738v16.154l-8.811,17.622
		c-1.654,3.291-0.328,7.299,2.963,8.954c0.02,0.01,0.04,0.02,0.061,0.03c0.947,0.442,1.978,0.678,3.023,0.691
		c2.544,0.04,4.875-1.413,5.96-3.714l7.688-15.29h55.457c2.937,0,4.233,0.605,4.578,1.037c0.346,0.432,0.777,1.9-0.432,6.392
		c-0.185,0.653-0.329,1.316-0.432,1.987c-0.346,1.382-2.332,7.083-3.714,11.23c-1.728,5.097-3.887,11.402-5.96,17.708
		c-2.246,7.083-0.95,11.921,0.864,14.944l-16.499,24.705c-2.04,3.014-1.251,7.112,1.763,9.153c0.045,0.031,0.091,0.061,0.137,0.09
		c1.112,0.708,2.397,1.096,3.714,1.123c2.258-0.01,4.363-1.143,5.615-3.023l16.585-25.051c1.482,0.277,2.985,0.421,4.492,0.432
		h29.284c5.356,4.146,16.154,14.253,20.127,30.666c4.751,19.522-2.591,40.254-4.233,44.66c-3.974,4.06-12.871,8.034-24.101,8.034
		c-4.003,0.024-7.989-0.528-11.834-1.641c-6.738-1.9-9.329-11.834-10.279-16.845L248.914,464.244z"/>
</g>
<g id="Layer_1">
</g>
</svg>
