<?xml version="1.0" encoding="iso-8859-1"?>
<!-- Generator: Adobe Illustrator 23.0.3, SVG Export Plug-In . SVG Version: 6.00 Build 0)  -->
<svg version="1.1" xmlns="http://www.w3.org/2000/svg" xmlns:xlink="http://www.w3.org/1999/xlink" x="0px" y="0px"
	 viewBox="0 0 580 580" style="enable-background:new 0 0 580 580;" xml:space="preserve">
<g id="people">
	<path d="M198.386,313.443c44.327,0,80.261-35.934,80.261-80.261s-35.934-80.261-80.261-80.261s-80.261,35.934-80.261,80.261l0,0
		C118.183,277.484,154.083,313.384,198.386,313.443z M198.386,167.18c36.452,0,66.002,29.55,66.002,66.002
		s-29.55,66.002-66.002,66.002s-66.002-29.55-66.002-66.002S161.934,167.18,198.386,167.18L198.386,167.18L198.386,167.18z"/>
	<path d="M383.435,280.523c44.327,0,80.261-35.934,80.261-80.261s-35.934-80.261-80.261-80.261s-80.261,35.934-80.261,80.261l0,0
		C303.092,244.508,339.108,280.523,383.435,280.523z M383.435,134.179c36.452,0,66.002,29.55,66.002,66.002
		s-29.55,66.002-66.002,66.002s-66.002-29.55-66.002-66.002S346.983,134.179,383.435,134.179L383.435,134.179z"/>
	<path d="M513.075,417.578c0-71.542-58.179-129.722-129.722-129.722c-43.565-0.065-84.238,21.802-108.21,58.179
		c-22.286-16.345-49.201-25.165-76.839-25.178c-71.461,0-129.64,58.179-129.64,129.722v7.171h259.443v-7.171
		c-0.008-8.675-0.881-17.328-2.607-25.83h187.575V417.578z M83.168,443.409c3.748-59.972,54.675-108.291,115.218-108.291
		c51.833,0.023,97.306,34.569,111.225,84.498c2.146,7.772,3.484,15.746,3.993,23.793H83.168z M286.306,355.243
		c21.301-32.992,57.857-52.957,97.128-53.046c60.542,0,111.469,48.238,115.218,108.291H321.752
		C314.911,389.32,302.699,370.285,286.306,355.243z"/>
</g>
<g id="Layer_1">
</g>
</svg>
