<?xml version="1.0" encoding="iso-8859-1"?>
<!-- Generator: Adobe Illustrator 23.0.3, SVG Export Plug-In . SVG Version: 6.00 Build 0)  -->
<svg version="1.1" xmlns="http://www.w3.org/2000/svg" xmlns:xlink="http://www.w3.org/1999/xlink" x="0px" y="0px"
	 viewBox="0 0 580 580" style="enable-background:new 0 0 580 580;" xml:space="preserve">
<g id="stethoscope-icon-blue">
	<path d="M489.337,130.148c-22.331-22.289-58.503-22.256-80.792,0.075c-21.142,21.181-22.355,55.088-2.78,77.725
		c8.999,10.35,21.401,17.145,34.968,19.157l1.255,0.167v144.056c0,70.134-56.855,126.99-126.99,126.99s-126.99-56.855-126.99-126.99
		c0-20.663,10.624-28.527,20.83-36.223c14.472-10.708,29.363-21.834,29.363-55.799v-16.731c-0.172-11.033,5.04-21.459,13.971-27.941
		c40.027-30.041,48.121-86.842,18.08-126.869c-2.561-3.412-5.36-6.64-8.376-9.658c-8.355-8.376-19.118-13.933-30.785-15.895
		l-1.255-0.167V74.35c0.009-3.826-3.084-6.934-6.91-6.943c-0.011,0-0.022,0-0.034,0c-8.453,0.005-15.304,6.856-15.309,15.309v8.366
		c0.005,8.453,6.856,15.304,15.309,15.309c3.826,0.009,6.934-3.084,6.943-6.91c0-0.011,0-0.022,0-0.034v-3.43l1.757,0.418
		c7.779,1.852,14.881,5.852,20.496,11.545c29.965,29.912,30.008,78.452,0.096,108.417c-2.589,2.594-5.361,4.998-8.294,7.196
		c-12.378,9.112-19.629,23.614-19.492,38.984v16.731c0,12.046-2.51,21.583-7.529,29.196c-4.517,6.776-10.708,11.377-16.229,15.476
		l-0.586,0.418c-6.692,5.019-12.967,9.788-17.735,16.731l-1.171,1.757l-1.171-1.757c-4.768-6.86-11.043-11.628-17.735-16.731
		l-0.586-0.418c-5.438-4.015-11.628-8.617-16.146-15.476c-5.103-7.613-7.529-17.149-7.529-29.196v-16.731
		c0.137-15.37-7.113-29.871-19.492-38.984c-33.886-25.384-40.778-73.432-15.394-107.318c2.197-2.933,4.602-5.705,7.196-8.294
		c5.592-5.679,12.663-9.679,20.412-11.545l1.757-0.418v3.43c-0.009,3.826,3.084,6.934,6.91,6.943c0.011,0,0.022,0,0.034,0
		c8.453-0.005,15.304-6.856,15.309-15.309v-8.366c-0.005-8.453-6.856-15.304-15.309-15.309c-3.826-0.009-6.934,3.084-6.943,6.91
		c0,0.011,0,0.022,0,0.034v7.696l-1.255,0.167c-11.692,1.96-22.482,7.516-30.869,15.895c-35.356,35.321-35.384,92.617-0.063,127.973
		c3.05,3.053,6.313,5.883,9.767,8.47c8.959,6.457,14.18,16.899,13.971,27.941v16.731c0,33.964,14.891,45.091,29.363,55.799
		c10.206,7.696,20.83,15.56,20.83,36.223c0,77.758,63.035,140.793,140.793,140.793s140.793-63.035,140.793-140.793V227.273
		l1.255-0.167c31.265-4.569,52.907-33.618,48.338-64.884C503.611,150.087,497.985,138.843,489.337,130.148z M448.931,127.22
		c23.886,0,43.25,19.364,43.25,43.25c0,23.886-19.364,43.25-43.25,43.25c-23.886,0-43.25-19.364-43.25-43.25
		C405.713,146.597,425.058,127.252,448.931,127.22z"/>
	<circle cx="448.931" cy="170.554" r="15.309"/>
</g>
<g id="Layer_1">
</g>
</svg>
